<?xml version="1.0" encoding="UTF-8" standalone="no"?>
<!-- Created with Inkscape (http://www.inkscape.org/) -->

<svg
   width="81.480896mm"
   height="42.292988mm"
   viewBox="0 0 81.480896 42.292987"
   version="1.1"
   id="svg1"
   xmlns="http://www.w3.org/2000/svg"
   xmlns:svg="http://www.w3.org/2000/svg">
  <defs
     id="defs1" />
  <g
     id="layer1"
     transform="translate(-88.643012,-221.19)">
    <text
       xml:space="preserve"
       style="font-style:normal;font-variant:normal;font-weight:normal;font-stretch:normal;font-size:11.2889px;font-family:'Amsterdam Handwriting';-inkscape-font-specification:'Amsterdam Handwriting';fill:#1a1a1a;fill-opacity:0;stroke:#535353;stroke-width:0.2;stroke-linecap:square;stroke-linejoin:round;stroke-miterlimit:30"
       x="72.801689"
       y="196.58386"
       id="text3"><tspan
         id="tspan3"
         style="font-size:11.2889px;fill:#1a1a1a;fill-opacity:1;stroke-width:0.2"
         x="72.801689"
         y="196.58386">MakeupArtist</tspan></text>
    <path
       d="m 97.823808,245.24098 q -0.104929,0.15255 -0.216147,0.21222 -0.111211,0.0597 -0.186087,0.0483 -0.06761,-0.0257 -0.07042,-0.10775 -0.0063,-0.0929 0.09864,-0.24543 0.63273,-0.86884 1.104652,-1.72131 0.471927,-0.85247 0.782395,-1.61718 0.310469,-0.7647 0.469894,-1.40942 0.155953,-0.65544 0.163686,-1.10877 0.0043,-0.46406 -0.143528,-0.70103 -0.140452,-0.2512 -0.433668,-0.2039 -0.63279,0.0977 -1.483692,0.62185 -0.850903,0.52412 -1.790035,1.3259 -0.93186,0.78756 -1.890643,1.7855 -0.95151,0.98374 -1.810798,2.03258 -0.852018,1.03462 -1.532496,2.04939 -0.683945,1.00404 -1.080676,1.83222 -0.396733,0.82817 -0.434199,1.40974 -0.0302,0.56736 0.414543,0.73209 0.48391,0.1758 1.308741,0.15837 0.824834,-0.0174 1.83955,-0.10806 1.011244,-0.10139 2.12611,-0.21254 1.114862,-0.11115 2.171563,-0.10859 1.063972,-0.0117 1.983518,0.15386 0.930279,0.16204 1.565099,0.62126 1.21299,-0.68859 2.07745,-1.13404 0.86099,-0.45621 1.1482,-0.63207 0.0575,-0.0423 0.0894,-0.017 0.0427,0.0218 0.0708,0.072 0.0246,0.0394 0.017,0.0894 0.003,0.0465 -0.0255,0.0676 -0.61361,0.34066 -1.41741,0.79024 -0.79654,0.43538 -1.71536,0.96959 0.33633,0.30653 0.5251,0.74381 0.19951,0.4338 0.23344,1.01602 0.0339,0.58222 -0.11921,1.31981 -0.14967,0.74834 -0.51169,1.68392 -0.58491,1.49404 -1.470793,2.71757 -0.875137,1.22006 -1.890446,2.15322 -1.015309,0.93316 -2.102859,1.56936 -1.087553,0.63619 -2.097292,0.9625 -0.805642,0.26036 -1.512969,0.31099 -0.714599,0.0648 -1.248746,-0.0829 -0.534147,-0.1477 -0.866356,-0.51489 -0.328741,-0.35645 -0.362666,-0.93868 -0.04467,-0.57875 0.241173,-1.38295 0.289314,-0.79346 0.977057,-1.82245 0.50317,-0.75579 1.181026,-1.48499 0.677852,-0.72921 1.44826,-1.429 0.784617,-0.69252 1.643772,-1.33795 0.866429,-0.65964 1.74294,-1.25137 0.887256,-0.59519 1.748902,-1.12277 0.858173,-0.53834 1.647767,-0.9952 -0.532179,-0.36188 -1.305793,-0.47966 -0.762868,-0.12123 -1.666367,-0.0903 -0.906968,0.0202 -1.886317,0.14691 -0.982817,0.11593 -1.919195,0.22872 -0.93985,0.10205 -1.789966,0.15137 -0.850116,0.0493 -1.495154,-0.0744 -0.637767,-0.13794 -1.023686,-0.48777 -0.385922,-0.34984 -0.40118,-1.02114 -0.0062,-0.49629 0.285975,-1.20761 0.302869,-0.7148 0.824706,-1.55966 0.532577,-0.84835 1.233552,-1.76299 0.708248,-0.92884 1.505573,-1.83901 0.808068,-0.91365 1.661918,-1.75905 0.864593,-0.84887 1.684909,-1.54107 0.820315,-0.69219 1.567274,-1.17085 0.754224,-0.49289 1.334287,-0.68034 0.440421,-0.14233 0.754093,-0.0895 0.527531,0.0905 0.745381,0.47095 0.21784,0.38043 0.18386,0.97273 -0.0267,0.57809 -0.262,1.3185 -0.22454,0.73694 -0.60326,1.54742 -0.371447,0.79627 -0.853786,1.61652 -0.471597,0.81678 -0.98171,1.55108 z m 2.662072,5.96137 q -1.256275,0.73817 -2.610215,1.61468 -1.353938,0.87651 -2.612183,1.82887 -1.254772,0.9631 -2.324444,1.98502 -1.069674,1.02191 -1.77543,2.06859 -0.626111,0.92603 -0.893286,1.64115 -0.263702,0.72586 -0.239862,1.24016 0.02731,0.52504 0.309946,0.84894 0.282628,0.3239 0.75265,0.45673 0.473493,0.14357 1.098686,0.0958 0.625189,-0.0478 1.344897,-0.2804 0.913061,-0.29507 1.896667,-0.88581 0.997817,-0.58347 1.930336,-1.44241 0.943258,-0.86243 1.749819,-2.00101 0.806561,-1.13857 1.347849,-2.54733 0.36202,-0.93559 0.51863,-1.66244 0.15661,-0.72684 0.14037,-1.29105 -0.005,-0.56769 -0.17311,-0.97621 -0.16762,-0.40851 -0.46131,-0.69324 z m 4.02174,-3.70803 q -0.0798,0.52406 -0.13363,0.94482 -0.0538,0.42076 -0.0887,0.71676 -0.0241,0.29252 -0.0254,0.43531 -0.001,0.1428 0.0205,0.10015 0.18936,-0.40524 0.43275,-0.86354 0.25066,-0.47251 0.52217,-0.88058 0.26802,-0.4188 0.54927,-0.72324 0.28126,-0.30444 0.53906,-0.38775 0.13965,-0.0451 0.26789,-0.0154 0.25648,0.0595 0.32841,0.39215 0.0684,0.32194 0.0427,0.79293 -0.0185,0.45679 -0.084,0.98813 -0.0656,0.53132 -0.0698,0.99539 -0.004,0.46406 0.0891,0.78979 0.0969,0.33647 0.3998,0.3928 0.0998,0.0152 0.17503,-0.009 0.26855,-0.0868 0.59722,-0.50146 0.32868,-0.41469 0.63025,-0.98669 0.30155,-0.57201 0.54312,-1.21953 0.24156,-0.64752 0.34662,-1.20348 0.0224,-0.11402 0.073,-0.17783 0.0505,-0.0638 0.097,-0.067 0.0464,-0.003 0.0707,0.0721 0.0208,0.0644 -0.002,0.21418 -0.11299,0.64156 -0.35488,1.32478 -0.23115,0.67976 -0.54725,1.28019 -0.31957,0.58969 -0.70195,1.02172 -0.38239,0.43203 -0.7691,0.557 -0.39745,0.12845 -0.74519,-0.10322 -0.31931,-0.21713 -0.419,-0.63574 -0.10313,-0.42936 -0.0986,-0.92911 0.0119,-0.51397 0.0809,-1.03456 0.0763,-0.5348 0.11215,-0.93789 0.0165,-0.2426 -0.0435,-0.31811 -0.06,-0.0755 -0.16741,-0.0408 -0.23632,0.0764 -0.47494,0.40262 -0.2819,0.37584 -0.52845,0.7877 -0.23579,0.40839 -0.43308,0.89924 -0.19002,0.47663 -0.32731,1.04301 -0.13728,0.56637 -0.20068,1.25123 -0.004,0.0964 -0.13337,0.138 -0.10741,0.0347 -0.23186,-0.02 -0.13171,-0.0405 -0.15884,-0.19781 -0.0609,-0.37184 -0.0397,-1.11421 0.007,-0.74964 0.10133,-1.70554 0.091,-0.96664 0.26194,-2.08962 0.17096,-1.12299 0.4133,-2.24532 0.23889,-1.13307 0.5485,-2.19409 0.32036,-1.0645 0.69593,-1.92142 0.37211,-0.86767 0.81299,-1.44911 0.44088,-0.58144 0.94574,-0.74459 0.19336,-0.0625 0.38605,-0.0536 0.57462,0.016 0.90966,0.46531 0.33502,0.44933 0.39608,1.18887 0.0576,0.72881 -0.18314,1.67266 -0.22997,0.94037 -0.78914,1.9634 -0.54842,1.01956 -1.45035,2.0466 -0.90541,1.01628 -2.18795,1.89345 z m 0.0573,-0.41003 q 1.16438,-0.83898 1.97625,-1.77758 0.82261,-0.94208 1.33089,-1.86562 0.50827,-0.92354 0.72305,-1.76409 0.22551,-0.84403 0.19571,-1.4869 -0.0225,-0.65708 -0.27959,-1.04856 -0.24628,-0.39497 -0.68159,-0.42038 -0.11057,-0.0118 -0.26097,0.0368 -0.36522,0.11802 -0.69422,0.5684 -0.329,0.45037 -0.62427,1.11526 -0.28454,0.6614 -0.53501,1.50163 -0.25394,0.82948 -0.47631,1.71995 -0.21164,0.88699 -0.38756,1.77431 -0.16867,0.8731 -0.28644,1.64671 z m 7.13046,-0.51291 q -0.0332,0.1175 -0.0886,0.31335 -0.0588,0.1851 -0.11069,0.39169 -0.0519,0.20658 -0.0715,0.40275 -0.0196,0.19616 -0.003,0.32127 0.0368,0.26097 0.15757,0.34059 0.12792,0.0654 0.2783,0.0168 0.1504,-0.0486 0.30524,-0.19354 0.16211,-0.15917 0.26009,-0.33319 0.14509,-0.24857 0.26207,-0.54738 0.11698,-0.29881 0.20142,-0.5515 0.0917,-0.26691 0.13977,-0.44855 0.0554,-0.19584 0.0699,-0.22426 0.0218,-0.0427 0.0648,-0.0566 0.0537,-0.0173 0.11749,0.0332 0.0638,0.0505 0.0309,0.13238 -0.0775,0.27417 -0.2024,0.65859 -0.11416,0.38095 -0.28898,0.75776 -0.16755,0.36261 -0.40236,0.6639 -0.23829,0.29056 -0.54981,0.39123 -0.24706,0.0798 -0.47828,-0.0115 -0.22047,-0.0948 -0.35684,-0.40669 -0.0658,0.16362 -0.16027,0.3484 -0.0838,0.1813 -0.20672,0.35153 -0.11219,0.16676 -0.25977,0.2975 -0.14758,0.13071 -0.31944,0.18625 -0.26855,0.0868 -0.51745,-0.0226 -0.25237,-0.12013 -0.3309,-0.50998 -0.0889,-0.42209 -0.0136,-0.84979 0.0646,-0.42424 0.24287,-0.79032 0.16755,-0.3626 0.41625,-0.62092 0.25944,-0.26181 0.52799,-0.34859 0.27929,-0.0903 0.51745,0.0226 0.0534,0.0184 0.0887,0.0543 0.0462,0.0326 0.0849,0.0793 0.0222,-0.0783 0.0585,-0.14941 0.0436,-0.0852 0.12958,-0.11302 0.0752,-0.0243 0.15354,-0.002 0.0891,0.0187 0.1456,0.0834 0.0673,0.0613 0.0951,0.14723 0.0385,0.0824 0.0125,0.18577 z m -0.744,0.15742 q -0.002,-0.11785 -0.0736,-0.15418 -0.0745,-0.0471 -0.19269,-0.009 -0.13965,0.0451 -0.24078,0.17272 -0.15517,0.18065 -0.30404,0.45417 -0.15236,0.26278 -0.25513,0.56885 -0.10624,0.29534 -0.14836,0.60555 -0.0563,0.30293 -10e-4,0.5462 0.0656,0.23979 0.24824,0.18077 0.13964,-0.0451 0.31283,-0.24345 0.18045,-0.21255 0.32619,-0.53251 0.14573,-0.31997 0.23874,-0.72966 0.10375,-0.41318 0.09,-0.85956 z m 2.49592,1.11533 q 0.007,0.79261 0.16636,1.32243 0.15935,0.52983 0.50774,0.69011 0.071,0.0363 0.19238,0.0446 0.12132,0.008 0.28245,-0.0438 0.23632,-0.0764 0.5422,-0.34132 0.31663,-0.26841 0.66462,-0.84356 0.348,-0.57515 0.72077,-1.51421 0.37276,-0.93907 0.73936,-2.37442 0.0218,-0.0427 0.0755,-0.06 0.0537,-0.0173 0.12128,0.008 0.0641,0.0149 0.0493,0.079 -0.33753,1.3785 -0.70714,2.364 -0.36234,0.97128 -0.73596,1.61403 -0.37013,0.65348 -0.73385,0.99644 -0.36373,0.34295 -0.69672,0.45057 -0.30077,0.0972 -0.5857,0.0232 -0.48076,-0.12936 -0.75513,-0.57456 -0.27091,-0.43446 -0.37559,-1.08873 -0.10814,-0.66501 -0.0684,-1.49646 0.0363,-0.84219 0.17685,-1.76553 0.14783,-0.93756 0.37466,-1.92437 0.22336,-0.99756 0.49629,-1.95182 0.26947,-0.96499 0.54903,-1.86208 0.29028,-0.90055 0.55052,-1.63715 0.27097,-0.74007 0.49734,-1.28778 0.22289,-0.55845 0.35756,-0.83924 0.32717,-0.6396 0.67353,-1.03627 0.34637,-0.39666 0.66862,-0.5008 0.46191,-0.14927 0.79248,0.3964 0.33058,0.54568 0.37466,1.96695 0.0118,0.66056 -0.11392,1.51978 -0.11842,0.845 -0.38789,1.81 -0.2622,0.95079 -0.66437,1.98241 -0.40216,1.03161 -0.96134,2.05465 -0.54843,1.01956 -1.25005,2.00558 -0.69437,0.97181 -1.53747,1.81374 z m -2e-4,-0.36771 q 0.80709,-0.80656 1.46542,-1.743 0.66561,-0.95065 1.18528,-1.94906 0.51967,-0.99841 0.9073,-2.00159 0.38416,-1.01394 0.62834,-1.94704 0.25493,-0.93657 0.36228,-1.74241 0.11463,-0.82005 0.0845,-1.42723 -0.0505,-1.11073 -0.24306,-1.52306 -0.18534,-0.42651 -0.46459,-0.33626 -0.21484,0.0694 -0.47146,0.41335 -0.2601,0.3332 -0.52184,0.84488 -0.3199,0.62539 -0.6563,1.49338 -0.32915,0.85379 -0.64538,1.85763 -0.3197,0.9931 -0.61164,2.07213 -0.29193,1.07904 -0.5052,2.14452 -0.21674,1.05473 -0.35795,2.04947 -0.13395,0.98052 -0.1557,1.79429 z m 4.54402,-4.99201 q 0.0193,-0.16047 0.0567,-0.33864 0.0373,-0.17816 0.0851,-0.32409 0.0585,-0.1494 0.12012,-0.25237 0.0724,-0.10642 0.17601,-0.11615 0.13238,-0.0309 0.2922,0.0598 0.17055,0.0872 0.15849,0.23352 -0.008,0.0856 -0.0557,0.23154 -0.0512,0.13519 -0.12045,0.28807 -0.0727,0.14212 -0.14889,0.27351 -0.0689,0.11717 -0.14095,0.18792 -0.036,0.0354 -0.11816,0.0382 -0.0748,-0.0114 -0.15667,-0.0443 -0.071,-0.0363 -0.11336,-0.0939 -0.0458,-0.0682 -0.0344,-0.14311 z m 0.0657,1.78203 q -0.19663,0.41946 -0.32946,0.88948 -0.12209,0.46656 -0.14023,0.88765 -0.0324,0.41382 0.0576,0.72881 0.0899,0.31499 0.34231,0.43511 0.11022,0.0474 0.27135,-0.005 0.22558,-0.0729 0.49924,-0.32742 0.27365,-0.25454 0.56251,-0.60888 0.29613,-0.36857 0.57836,-0.7801 0.29298,-0.41501 0.54646,-0.80538 0.26076,-0.40459 0.45293,-0.7277 0.19945,-0.33732 0.3047,-0.52556 0.0291,-0.0569 0.0755,-0.06 0.0464,-0.003 0.0783,0.0222 0.0427,0.0218 0.06,0.0755 0.0246,0.0395 -0.008,0.0856 -0.0724,0.10641 -0.25034,0.43681 -0.17069,0.31617 -0.41376,0.73877 -0.24307,0.42259 -0.55092,0.90172 -0.2971,0.47565 -0.62578,0.89034 -0.31794,0.4112 -0.65637,0.72226 -0.32422,0.31832 -0.625,0.41552 -0.1289,0.0417 -0.23601,0.0406 -0.47479,-7.8e-4 -0.71164,-0.25642 -0.23684,-0.25565 -0.31538,-0.6455 -0.082,-0.40061 -0.0313,-0.8678 0.0507,-0.46721 0.15444,-0.88038 0.10376,-0.41317 0.22074,-0.71198 0.11699,-0.2988 0.18176,-0.35533 0.11156,-0.0953 0.17601,-0.11615 0.18261,-0.059 0.29187,0.0955 0.11649,0.14031 0.0401,0.30737 z m 2.60817,1.7197 q 0.0248,-0.36392 0.10389,-0.81659 0.0684,-0.44919 0.16172,-0.89459 0.0933,-0.44539 0.19709,-0.85855 0.10375,-0.41318 0.19925,-0.70504 0.0664,-0.23501 0.23829,-0.29055 0.15039,-0.0486 0.28145,0.0633 0.12758,0.10114 0.0583,0.25402 -0.10211,0.23468 -0.2024,0.65859 -0.10028,0.42391 -0.19329,0.83362 -0.1044,0.48456 -0.19493,1.01209 0.12459,-0.34872 0.24537,-0.67248 0.11731,-0.33451 0.21628,-0.61563 0.10971,-0.28459 0.19729,-0.49085 0.0983,-0.20973 0.18837,-0.29815 0.1479,-0.16644 0.30903,-0.21851 0.21483,-0.0694 0.3383,0.0923 0.12344,0.1618 0.11736,0.43663 -0.001,0.1428 -0.0213,0.37466 -0.0234,0.22112 -0.0327,0.44952 -0.0127,0.21764 0.003,0.41415 0.0126,0.18574 0.0653,0.2755 0.067,0.097 0.15288,0.0692 0.1289,-0.0417 0.30273,-0.31139 0.17037,-0.28046 0.36668,-0.66422 0.19283,-0.3945 0.37904,-0.84619 0.19696,-0.45515 0.36831,-0.84271 0.0183,-0.0534 0.072,-0.0708 0.0644,-0.0208 0.1175,0.0332 0.0603,0.0398 0.0274,0.12164 -0.17482,0.37681 -0.32088,0.73248 -0.13879,0.34144 -0.2918,0.67561 -0.14227,0.33072 -0.31296,0.64687 -0.17069,0.31617 -0.41277,0.63168 -0.1555,0.21634 -0.40257,0.29619 -0.17187,0.0555 -0.34275,0.004 -0.16015,-0.055 -0.27602,-0.26671 -0.0736,-0.15418 -0.0965,-0.37218 -0.0229,-0.21799 -0.021,-0.43216 0.002,-0.21417 0.0143,-0.39614 0.0231,-0.18543 0.0453,-0.26376 -0.11534,0.12029 -0.26835,0.4545 -0.15647,0.32343 -0.30634,0.70405 -0.14259,0.3664 -0.25643,0.71164 -0.12458,0.34872 -0.18654,0.48738 -0.0914,0.23121 -0.24176,0.27981 -0.15038,0.0486 -0.27418,-0.0775 -0.12031,-0.11535 -0.11143,-0.30804 z m 4.58758,-5.84842 q 0.0193,-0.16047 0.0567,-0.33863 0.0373,-0.17816 0.0851,-0.3241 0.0585,-0.1494 0.12012,-0.25237 0.0724,-0.10641 0.17601,-0.11615 0.13238,-0.0309 0.2922,0.0598 0.17055,0.0872 0.15849,0.23352 -0.008,0.0856 -0.0557,0.23154 -0.0512,0.13519 -0.12045,0.28807 -0.0727,0.14213 -0.14889,0.27352 -0.0689,0.11717 -0.14095,0.18792 -0.0361,0.0354 -0.11817,0.0382 -0.0748,-0.0114 -0.15666,-0.0443 -0.071,-0.0363 -0.11336,-0.0939 -0.0458,-0.0682 -0.0344,-0.14312 z m 0.0658,1.78204 q -0.19663,0.41946 -0.32946,0.88948 -0.1221,0.46655 -0.14024,0.88764 -0.0324,0.41383 0.0576,0.72881 0.0899,0.31499 0.3423,0.43512 0.11021,0.0474 0.27135,-0.005 0.22558,-0.0729 0.49923,-0.32743 0.27366,-0.25453 0.56251,-0.60888 0.29613,-0.36857 0.57837,-0.7801 0.29298,-0.415 0.54646,-0.80538 0.26076,-0.40459 0.45293,-0.7277 0.19945,-0.33731 0.30471,-0.52556 0.029,-0.0569 0.0755,-0.06 0.0465,-0.003 0.0783,0.0222 0.0427,0.0218 0.06,0.0755 0.0247,0.0395 -0.008,0.0856 -0.0724,0.10641 -0.25034,0.43681 -0.17069,0.31617 -0.41376,0.73877 -0.24308,0.42259 -0.55092,0.90173 -0.2971,0.47564 -0.62578,0.89033 -0.31794,0.4112 -0.65637,0.72226 -0.32423,0.31832 -0.625,0.41552 -0.1289,0.0417 -0.236,0.0406 -0.47481,-7.8e-4 -0.71165,-0.25642 -0.23684,-0.25565 -0.31538,-0.6455 -0.082,-0.40061 -0.0313,-0.8678 0.0507,-0.46721 0.15445,-0.88038 0.10376,-0.41317 0.22074,-0.71198 0.11698,-0.2988 0.18176,-0.35533 0.11156,-0.0953 0.17601,-0.11615 0.18261,-0.059 0.29187,0.0955 0.11649,0.14031 0.0401,0.30738 z m 7.85695,-14.71133 q -0.008,-0.2464 0.0715,-0.40276 0.0873,-0.17055 0.20541,-0.20874 0.10742,-0.0347 0.19931,0.0661 0.0991,0.0866 0.1541,0.32984 0.034,0.17882 0.0275,0.89275 -0.007,0.71395 -0.0451,1.80602 -0.0313,1.07786 -0.0798,2.46972 -0.0412,1.37765 -0.073,2.89461 -0.0318,1.51697 -0.0569,3.09111 -0.0179,1.55993 -0.006,3.02731 0.0223,1.46391 0.0891,2.73545 0.0811,1.27881 0.21535,2.20824 0.14502,0.92597 0.35461,1.4277 0.22377,0.50901 0.54954,0.4156 0.16461,-0.0413 0.42005,-0.6459 0.25892,-0.59381 0.58242,-1.61187 0.33772,-1.01078 0.72862,-2.37094 0.39091,-1.36016 0.8122,-2.91996 0.42857,-1.57401 0.88688,-3.27627 0.4583,-1.70227 0.92007,-3.39379 0.46178,-1.69151 0.91215,-3.30817 0.44691,-1.62739 0.87384,-3.02292 0.42346,-1.40627 0.80133,-2.51307 0.37439,-1.11755 0.6842,-1.81087 0.0474,-0.11021 0.10841,-0.1418 0.0717,-0.0351 0.11437,-0.0132 0.0427,0.0218 0.0528,0.0897 0.0208,0.0644 -0.0266,0.17468 -0.27314,0.58654 -0.61845,1.64723 -0.33458,1.05723 -0.71853,2.43887 -0.38396,1.38164 -0.80592,3.01284 -0.42195,1.63119 -0.86984,3.36568 -0.45136,1.72374 -0.90305,3.48319 -0.45515,1.74869 -0.90933,3.3903 -0.44691,1.6274 -0.88491,3.0621 -0.43799,1.43469 -0.84776,2.51622 -0.39555,1.08879 -0.76222,1.75302 -0.35245,0.6715 -0.65323,0.7687 -0.0967,0.0312 -0.16428,0.006 -0.46655,-0.12209 -0.77466,-0.7818 -0.29387,-0.65244 -0.45909,-1.71425 -0.16519,-1.06181 -0.22728,-2.4654 -0.0621,-1.40358 -0.0581,-3.00648 0.004,-1.6029 0.045,-3.34826 0.0517,-1.74884 0.0927,-3.49419 0.041,-1.74536 0.0637,-3.43734 0.0227,-1.69198 -0.0208,-3.18464 z m 9.99379,9.19168 q -0.0332,0.1175 -0.0886,0.31335 -0.0588,0.1851 -0.11069,0.39169 -0.0519,0.20658 -0.0715,0.40275 -0.0196,0.19616 -0.003,0.32127 0.0368,0.26097 0.15757,0.34059 0.12792,0.0654 0.27831,0.0168 0.15038,-0.0486 0.30524,-0.19354 0.16211,-0.15916 0.26009,-0.33318 0.14508,-0.24857 0.26207,-0.54738 0.11698,-0.29881 0.20141,-0.5515 0.0917,-0.26691 0.13977,-0.44855 0.0554,-0.19584 0.0699,-0.22427 0.0218,-0.0427 0.0647,-0.0565 0.0537,-0.0173 0.1175,0.0332 0.0638,0.0505 0.0309,0.13238 -0.0775,0.27417 -0.2024,0.65859 -0.11417,0.38095 -0.28898,0.75776 -0.16756,0.36261 -0.40237,0.6639 -0.23829,0.29056 -0.5498,0.39123 -0.24707,0.0798 -0.47828,-0.0115 -0.22047,-0.0948 -0.35684,-0.40668 -0.0658,0.16362 -0.16027,0.3484 -0.0838,0.18129 -0.20672,0.35153 -0.11221,0.16676 -0.25977,0.29749 -0.14758,0.13072 -0.31946,0.18626 -0.26854,0.0868 -0.51744,-0.0226 -0.25237,-0.12013 -0.33089,-0.50998 -0.0889,-0.42209 -0.0136,-0.84979 0.0646,-0.42424 0.24288,-0.79032 0.16754,-0.3626 0.41625,-0.62092 0.25944,-0.26181 0.52798,-0.3486 0.27929,-0.0902 0.51745,0.0226 0.0534,0.0184 0.0887,0.0543 0.0462,0.0326 0.0849,0.0793 0.0222,-0.0783 0.0585,-0.14941 0.0436,-0.0852 0.12958,-0.11302 0.0752,-0.0243 0.15353,-0.002 0.0891,0.0187 0.14561,0.0834 0.0673,0.0613 0.0951,0.14723 0.0385,0.0824 0.0125,0.18577 z m -0.74401,0.15742 q -0.002,-0.11784 -0.0736,-0.15418 -0.0745,-0.0471 -0.1927,-0.009 -0.13964,0.0451 -0.24078,0.17271 -0.15516,0.18065 -0.30405,0.45418 -0.15234,0.26278 -0.25512,0.56885 -0.10624,0.29534 -0.14835,0.60554 -0.0563,0.30293 -0.001,0.5462 0.0656,0.23979 0.24824,0.18078 0.13965,-0.0451 0.31283,-0.24346 0.18046,-0.21255 0.32619,-0.53251 0.14574,-0.31997 0.23875,-0.72966 0.10375,-0.41317 0.09,-0.85955 z m 3.7359,-0.95818 q -0.0935,0.0777 -0.14313,0.0344 -0.0423,-0.0575 0.004,-0.0964 0.11535,-0.1203 0.10938,-0.2489 -0.009,-0.13933 -0.1661,-0.18359 -0.096,-0.0401 -0.26789,0.0154 -0.16112,0.0521 -0.31944,0.18626 -0.1618,0.12343 -0.26705,0.31171 -0.098,0.17403 -0.11068,0.39169 -0.0127,0.21764 0.14232,0.44041 0.10574,0.14379 0.22545,0.33051 0.11616,0.17602 0.22197,0.31977 0.34158,-0.26462 0.70465,-0.53617 0.36306,-0.27156 0.68695,-0.55419 0.33464,-0.28611 0.58714,-0.56939 0.25978,-0.2975 0.3875,-0.59977 0.0509,-0.0995 0.12609,-0.12377 0.0538,-0.0174 0.0925,0.0295 0.0496,0.0432 0.0129,0.15007 -0.0882,0.27765 -0.34453,0.58589 -0.2563,0.30824 -0.60548,0.62276 -0.34918,0.31453 -0.74826,0.62146 -0.39909,0.30693 -0.75521,0.59997 0.0177,0.018 0.0212,0.0288 0.003,0.0108 0.0212,0.0288 0.18939,0.36589 0.20101,0.65873 0.0116,0.29284 -0.094,0.51679 -0.0914,0.23122 -0.28191,0.37584 -0.18707,0.15535 -0.39117,0.22131 -0.18261,0.059 -0.35382,0.0432 -0.16772,-0.005 -0.28839,-0.0848 -0.12792,-0.0654 -0.18726,-0.21234 -0.0701,-0.14345 -0.0252,-0.37152 0.0598,-0.29219 0.31231,-0.57547 0.23828,-0.29055 0.5944,-0.5836 -0.10921,-0.15453 -0.24693,-0.32357 -0.1269,-0.17253 -0.28578,-0.37033 -0.27155,-0.36306 -0.30428,-0.68467 -0.0362,-0.33233 0.0804,-0.59545 0.11665,-0.26312 0.34322,-0.44311 0.23383,-0.1942 0.49163,-0.27752 0.2793,-0.0903 0.54306,-0.045 0.26377,0.0453 0.40806,0.27149 0.0847,0.11501 0.0577,0.32542 -0.0162,0.2069 -0.18903,0.36954 z m -0.75377,1.99943 q -0.32738,0.27189 -0.53311,0.51634 -0.2092,0.23369 -0.21812,0.42639 -0.0165,0.24261 0.10067,0.31152 0.10989,0.0831 0.27104,0.031 0.11817,-0.0382 0.23699,-0.14774 0.11153,-0.0954 0.18078,-0.24825 0.0834,-0.14559 0.10657,-0.33103 0.0231,-0.18542 -0.0678,-0.39331 -0.0208,-0.0644 -0.077,-0.16492 z m 3.28422,-5.03571 q 0.0193,-0.16046 0.0566,-0.33863 0.0373,-0.17816 0.0851,-0.3241 0.0585,-0.14939 0.12012,-0.25236 0.0724,-0.10642 0.17601,-0.11616 0.13238,-0.0309 0.29219,0.0598 0.17056,0.0873 0.15849,0.23352 -0.008,0.0856 -0.0557,0.23154 -0.0512,0.13518 -0.12045,0.28807 -0.0727,0.14212 -0.14889,0.27351 -0.0689,0.11717 -0.14095,0.18792 -0.0361,0.0354 -0.11816,0.0382 -0.0748,-0.0114 -0.15668,-0.0443 -0.071,-0.0363 -0.11335,-0.0939 -0.0458,-0.0682 -0.0344,-0.14311 z m 0.0658,1.78204 q -0.19663,0.41946 -0.32947,0.88949 -0.12208,0.46654 -0.14023,0.88764 -0.0324,0.41382 0.0576,0.72881 0.0899,0.31499 0.3423,0.43511 0.11022,0.0474 0.27135,-0.005 0.22559,-0.0729 0.49925,-0.32742 0.27365,-0.25454 0.56251,-0.60888 0.29612,-0.36857 0.57835,-0.7801 0.29298,-0.41501 0.54647,-0.80538 0.26075,-0.40459 0.45292,-0.7277 0.19945,-0.33732 0.30471,-0.52557 0.0291,-0.0569 0.0755,-0.06 0.0465,-0.003 0.0783,0.0222 0.0427,0.0218 0.06,0.0755 0.0247,0.0395 -0.008,0.0856 -0.0724,0.10641 -0.25034,0.4368 -0.17068,0.31617 -0.41376,0.73877 -0.24306,0.4226 -0.55091,0.90173 -0.29711,0.47565 -0.62579,0.89034 -0.31793,0.4112 -0.65636,0.72225 -0.32422,0.31833 -0.625,0.41553 -0.1289,0.0417 -0.23601,0.0406 -0.4748,-7.8e-4 -0.71164,-0.25643 -0.23685,-0.25564 -0.31538,-0.64549 -0.0821,-0.40058 -0.0313,-0.8678 0.0507,-0.46721 0.15445,-0.88039 0.10375,-0.41316 0.22073,-0.71197 0.11699,-0.29881 0.18176,-0.35533 0.11156,-0.0953 0.17601,-0.11616 0.18262,-0.059 0.29187,0.0955 0.11649,0.1403 0.0401,0.30737 z m 4.75126,-1.12022 q -0.0935,0.0777 -0.14313,0.0344 -0.0423,-0.0575 0.004,-0.0964 0.11535,-0.1203 0.10938,-0.2489 -0.009,-0.13933 -0.1661,-0.1836 -0.096,-0.0401 -0.26788,0.0154 -0.16113,0.0521 -0.31945,0.18625 -0.16179,0.12344 -0.26704,0.31171 -0.098,0.17404 -0.11069,0.39169 -0.0127,0.21765 0.14232,0.44042 0.10575,0.14379 0.22545,0.3305 0.11616,0.17602 0.22198,0.31978 0.34158,-0.26462 0.70464,-0.53617 0.36306,-0.27157 0.68696,-0.55419 0.33463,-0.28611 0.58713,-0.56939 0.25978,-0.2975 0.3875,-0.59977 0.0509,-0.0995 0.12609,-0.12377 0.0538,-0.0174 0.0925,0.0295 0.0496,0.0433 0.0129,0.15008 -0.0882,0.27764 -0.34453,0.58588 -0.2563,0.30824 -0.60548,0.62277 -0.34918,0.31453 -0.74826,0.62146 -0.39909,0.30692 -0.75521,0.59996 0.0177,0.018 0.0212,0.0288 0.003,0.0108 0.0212,0.0288 0.18939,0.36589 0.20101,0.65873 0.0116,0.29284 -0.094,0.51678 -0.0914,0.23122 -0.28191,0.37584 -0.18707,0.15536 -0.39117,0.22131 -0.18261,0.059 -0.35381,0.0432 -0.16773,-0.005 -0.2884,-0.0848 -0.12792,-0.0654 -0.18726,-0.21235 -0.0701,-0.14344 -0.0252,-0.37151 0.0598,-0.29219 0.31231,-0.57547 0.23829,-0.29056 0.5944,-0.58361 -0.10921,-0.15452 -0.24693,-0.32356 -0.1269,-0.17254 -0.28578,-0.37034 -0.27155,-0.36306 -0.30428,-0.68466 -0.0363,-0.33234 0.0804,-0.59546 0.11666,-0.26311 0.34322,-0.4431 0.23383,-0.19421 0.49164,-0.27752 0.27929,-0.0903 0.54305,-0.045 0.26377,0.0453 0.40806,0.2715 0.0847,0.115 0.0577,0.32541 -0.0162,0.20691 -0.18903,0.36955 z m -0.75377,1.99943 q -0.32737,0.27188 -0.53311,0.51633 -0.2092,0.2337 -0.21812,0.4264 -0.0165,0.24261 0.10068,0.31152 0.10988,0.0831 0.27104,0.031 0.11816,-0.0382 0.23698,-0.14773 0.11153,-0.0954 0.18078,-0.24825 0.0834,-0.1456 0.10657,-0.33103 0.0231,-0.18542 -0.0678,-0.39331 -0.0208,-0.0644 -0.0771,-0.16492 z m 3.01324,-4.29563 q -0.0798,0.52405 -0.13363,0.94482 -0.0538,0.42077 -0.0887,0.71676 -0.0241,0.29252 -0.0254,0.43531 -0.001,0.14281 0.0205,0.10015 0.18936,-0.40524 0.43275,-0.86354 0.25067,-0.47252 0.52217,-0.88058 0.26802,-0.4188 0.54928,-0.72324 0.28125,-0.30444 0.53905,-0.38775 0.13965,-0.0451 0.26789,-0.0154 0.25649,0.0595 0.32841,0.39215 0.0684,0.32194 0.0427,0.79293 -0.0185,0.45679 -0.084,0.98813 -0.0656,0.53133 -0.0698,0.99539 -0.004,0.46406 0.0891,0.78979 0.0969,0.33648 0.3998,0.3928 0.0998,0.0152 0.17504,-0.009 0.26854,-0.0868 0.59722,-0.50146 0.32867,-0.41468 0.63024,-0.98668 0.30155,-0.572 0.54312,-1.21953 0.24156,-0.64752 0.34662,-1.20348 0.0224,-0.11402 0.073,-0.17783 0.0505,-0.0638 0.097,-0.067 0.0465,-0.003 0.0708,0.072 0.0208,0.0644 -0.002,0.21418 -0.11299,0.64156 -0.35488,1.32478 -0.23115,0.67976 -0.54725,1.28018 -0.31957,0.5897 -0.70196,1.02173 -0.38238,0.43203 -0.76909,0.557 -0.39745,0.12845 -0.74519,-0.10322 -0.31931,-0.21714 -0.419,-0.63574 -0.10313,-0.42936 -0.0986,-0.92911 0.0119,-0.51397 0.0809,-1.03457 0.0763,-0.53479 0.11214,-0.93788 0.0165,-0.2426 -0.0435,-0.31811 -0.06,-0.0755 -0.16741,-0.0408 -0.23632,0.0764 -0.47494,0.40262 -0.28191,0.37584 -0.52844,0.7877 -0.23581,0.40839 -0.43309,0.89924 -0.19001,0.47663 -0.3273,1.043 -0.1373,0.56638 -0.2007,1.25124 -0.004,0.0964 -0.13336,0.13799 -0.10742,0.0347 -0.23186,-0.02 -0.13171,-0.0405 -0.15883,-0.19782 -0.0609,-0.37182 -0.0397,-1.1142 0.007,-0.74964 0.10133,-1.70554 0.091,-0.96664 0.26194,-2.08962 0.17095,-1.12299 0.4133,-2.24532 0.23888,-1.13308 0.5485,-2.1941 0.32036,-1.06449 0.69594,-1.92142 0.3721,-0.86767 0.81298,-1.4491 0.44087,-0.58144 0.94575,-0.7446 0.19335,-0.0625 0.38604,-0.0536 0.57462,0.016 0.90965,0.46531 0.33503,0.44933 0.39608,1.18888 0.0576,0.72881 -0.18314,1.67266 -0.22997,0.94037 -0.78914,1.9634 -0.54843,1.01956 -1.45036,2.0466 -0.90539,1.01628 -2.18794,1.89345 z m 0.0573,-0.41003 q 1.16437,-0.83898 1.97624,-1.77758 0.82261,-0.94208 1.33089,-1.86562 0.50827,-0.92354 0.72305,-1.76409 0.22551,-0.84402 0.19572,-1.4869 -0.0225,-0.65708 -0.27959,-1.04856 -0.24628,-0.39497 -0.68159,-0.42038 -0.11057,-0.0118 -0.26096,0.0368 -0.36523,0.11803 -0.69423,0.5684 -0.329,0.45038 -0.62427,1.11527 -0.28453,0.6614 -0.53501,1.50163 -0.25394,0.82948 -0.47631,1.71995 -0.21163,0.88698 -0.38756,1.77431 -0.16867,0.8731 -0.28643,1.64671 z m 7.35691,-8.07212 q -0.15779,0.46622 -0.30517,0.96467 -0.14011,0.48424 -0.28401,0.99343 0.84678,-0.46348 1.71472,-0.89819 0.86445,-0.44546 1.66761,-0.82365 0.81389,-0.38166 1.52352,-0.68217 0.72037,-0.30395 1.27894,-0.48447 0.66601,-0.21523 1.03024,-0.22616 0.16774,0.005 0.20973,0.0983 0.0385,0.0824 -0.1545,0.1093 -0.22874,0.0264 -0.49001,0.099 -0.25401,0.0583 -0.54404,0.15207 -0.64452,0.20829 -1.41166,0.5511 -0.7706,0.33206 -1.59903,0.74217 -0.82844,0.41008 -1.68595,0.87702 -0.84678,0.46348 -1.65786,0.92728 -0.3068,1.14315 -0.55675,2.31539 -0.24995,1.17225 -0.43859,2.27722 -0.18864,1.10498 -0.30143,2.11425 -0.10552,0.99507 -0.12728,1.80883 -0.0217,0.81377 0.0586,1.39284 0.0838,0.58982 0.27424,0.84861 0.13038,0.18328 0.35599,0.11037 0.31152,-0.10067 0.73785,-0.65368 0.42982,-0.54227 0.88753,-1.40201 0.46845,-0.86322 0.91424,-1.98011 0.45654,-1.12037 0.80002,-2.37028 0.0152,-0.0998 0.10114,-0.12759 0.0537,-0.0173 0.096,0.0401 0.0496,0.0432 0.0236,0.1466 -0.13283,0.47002 -0.34597,1.13208 -0.20586,0.64786 -0.48378,1.36645 -0.27065,0.70438 -0.58773,1.4119 -0.31708,0.70752 -0.67235,1.29689 -0.34106,0.59663 -0.70543,1.01097 -0.36438,0.41435 -0.71886,0.52891 -0.38671,0.12497 -0.74106,-0.16388 -0.34013,-0.28158 -0.47703,-0.92544 -0.14767,-0.64037 -0.13597,-1.52207 0.004,-0.86748 0.139,-1.9194 0.12385,-1.04845 0.32671,-2.14615 0.2136,-1.10117 0.46636,-2.19128 0.2635,-1.09357 0.52223,-2.05511 -0.73936,0.42877 -1.40352,0.83322 -0.6569,0.39024 -1.18108,0.71388 -0.52767,0.31289 -0.88313,0.53454 -0.36968,0.21436 -0.49892,0.29172 -0.25847,0.15468 -0.50964,0.29521 -0.25118,0.14055 -0.45527,0.2065 -0.31152,0.10068 -0.47101,-0.0257 -0.0922,-0.0651 -0.10169,-0.20442 -0.0236,-0.14659 0.10244,-0.27037 0.11153,-0.0954 0.19747,-0.12319 0.1289,-0.0417 0.23221,-0.0157 0.0925,0.0294 0.0849,0.0793 -0.008,0.0856 0.1532,0.0335 0.10742,-0.0347 0.27961,-0.12599 0.16144,-0.0878 0.36241,-0.20014 0.1975,-0.1231 0.40571,-0.24975 0.20823,-0.12657 0.39496,-0.24628 0.68945,-0.43636 1.56878,-0.94594 0.87585,-0.52032 1.85187,-1.06114 0.31341,-1.08598 0.5705,-1.86903 0.25708,-0.78304 0.37374,-1.04615 0.08,-0.15635 0.16591,-0.18412 0.0644,-0.0208 0.11749,0.0332 0.0496,0.0433 0.0774,0.12922 0.0385,0.0824 0.0517,0.19683 0.01,0.10363 -0.005,0.20343 -0.0155,0.13551 -0.0806,0.22774 -0.0651,0.0922 -0.10394,0.0455 z"
       id="text1"
       style="font-size:11.2889px;font-family:'Amsterdam Handwriting';-inkscape-font-specification:'Amsterdam Handwriting';stroke:#000000;stroke-width:0.2;stroke-linecap:square;stroke-linejoin:round;stroke-miterlimit:30"
       aria-label="Shalini Vasisht" />
  </g>
</svg>
