<?xml version="1.0" encoding="UTF-8" standalone="no"?>
<!-- Created with Inkscape (http://www.inkscape.org/) -->

<svg
   width="80.377991mm"
   height="39.448063mm"
   viewBox="0 0 80.377991 39.448063"
   version="1.1"
   id="svg1"
   xmlns="http://www.w3.org/2000/svg"
   xmlns:svg="http://www.w3.org/2000/svg">
  <defs
     id="defs1" />
  <g
     id="layer1"
     transform="translate(-74.714899,-175.96955)">
    <path
       style="font-size:11.2889px;font-family:'Amsterdam Handwriting';-inkscape-font-specification:'Amsterdam Handwriting';fill:#1a1a1a;stroke:#535353;stroke-width:0.2;stroke-linecap:square;stroke-linejoin:round;stroke-miterlimit:30"
       d="m 11.831644,219.71514 q 0.03387,0.1016 -0.02258,0.15804 -0.05645,0.0565 -0.146756,0.0565 -0.07902,0 -0.146756,-0.0452 -0.05644,-0.0564 -0.07902,-0.18062 -0.02258,-0.19191 0.180622,-0.65476 0.2032,-0.47413 0.587023,-1.12889 0.383823,-0.65476 0.914401,-1.46756 0.541867,-0.8128 1.174046,-1.68204 0.632178,-0.86925 1.33209,-1.76107 0.699912,-0.90311 1.422401,-1.73849 0.72249,-0.83538 1.433691,-1.56916 0.7112,-0.73378 1.354668,-1.27564 0.654756,-0.54187 1.207912,-0.85796 0.564445,-0.31609 0.982134,-0.31609 0.158045,0 0.282223,0.0452 0.338667,0.11288 0.395111,0.63217 0.06773,0.51929 -0.07902,1.33209 -0.146756,0.81281 -0.485423,1.87396 -0.338667,1.06116 -0.8128,2.28036 0.824089,-0.86925 1.625601,-1.58045 0.801512,-0.72249 1.54658,-1.24178 0.745067,-0.51928 1.411112,-0.80151 0.666045,-0.29351 1.207912,-0.29351 0.361245,0 0.666046,0.13547 0.4064,0.18062 0.508,0.66604 0.112889,0.48543 -0.01129,1.18534 -0.124178,0.68862 -0.440267,1.54658 -0.3048,0.84666 -0.72249,1.76107 -0.417689,0.90311 -0.903112,1.8288 -0.485422,0.9144 -0.948267,1.76107 -0.462845,0.83537 -0.880534,1.54658 -0.406401,0.69991 -0.677334,1.17404 0.225778,-0.36124 0.643467,-0.9144 0.428978,-0.56445 0.993423,-1.2192 0.564445,-0.66605 1.23049,-1.38854 0.677334,-0.72249 1.388535,-1.4224 0.711201,-0.7112 1.422401,-1.34338 0.72249,-0.63218 1.388535,-1.10631 0.666045,-0.48542 1.241779,-0.76764 0.587023,-0.28223 1.016001,-0.28223 0.248356,0 0.428978,0.1016 0.304801,0.16934 0.304801,0.64347 0.01129,0.47413 -0.191912,1.15147 -0.2032,0.66604 -0.575733,1.50142 -0.361245,0.83538 -0.812801,1.73849 -0.440267,0.89183 -0.92569,1.80623 -0.474134,0.9144 -0.903112,1.74978 -0.417689,0.83538 -0.745068,1.54658 -0.316089,0.7112 -0.451556,1.19662 0.05645,0.34996 0.112889,0.56444 0.05645,0.21449 -0.02258,0.39512 -0.06773,0.18062 -0.259645,0.18062 -0.124178,0 -0.225778,-0.1016 -0.191911,-0.19191 -0.146756,-0.65476 0.04516,-0.45155 0.248356,-1.09502 0.2032,-0.64347 0.541867,-1.4224 0.338667,-0.79023 0.733779,-1.63689 0.395111,-0.84667 0.824089,-1.71592 0.428979,-0.86924 0.812801,-1.67075 0.383823,-0.8128 0.688623,-1.51272 0.316089,-0.7112 0.485423,-1.23049 0.180622,-0.53057 0.180622,-0.83537 0,-0.30481 -0.248355,-0.30481 -0.146756,0 -0.372534,0.11289 -0.82409,0.4064 -1.670757,1.03858 -0.846668,0.63218 -1.682047,1.41112 -0.824089,0.77893 -1.625601,1.67075 -0.801512,0.89183 -1.535291,1.81752 -0.722489,0.9144 -1.354668,1.8288 -0.632178,0.9144 -1.12889,1.7272 -0.496711,0.82409 -0.846667,1.51271 -0.338667,0.69991 -0.485423,1.18534 -0.04516,0.13546 -0.135467,0.19191 -0.07902,0.0677 -0.180622,0.0677 -0.112889,0 -0.225778,-0.0677 -0.112889,-0.0677 -0.191912,-0.18062 -0.07902,-0.11289 -0.112889,-0.27094 -0.02258,-0.14675 0.03387,-0.32738 0.293512,-0.83538 0.778934,-1.88524 0.485423,-1.04987 1.072446,-2.20134 0.587023,-1.15147 1.219201,-2.34809 0.632178,-1.19662 1.207912,-2.32551 0.575734,-1.14018 1.038579,-2.15618 0.474134,-1.016 0.733779,-1.80623 0.259644,-0.79022 0.248356,-1.29822 0,-0.508 -0.372534,-0.62089 -0.158045,-0.0564 -0.406401,-0.0564 -0.530578,0 -1.219201,0.33866 -0.677334,0.32738 -1.456268,0.92569 -0.778934,0.59831 -1.625602,1.41111 -0.846667,0.81281 -1.715912,1.78365 -0.564445,1.36596 -1.241779,2.81094 -0.666046,1.44498 -1.377246,2.8448 -0.699912,1.39982 -1.411113,2.69805 -0.711201,1.30951 -1.365957,2.38195 -0.643467,1.08374 -1.196623,1.87396 -0.553156,0.80151 -0.936979,1.18534 -0.508001,0.508 -0.846668,0.508 -0.293511,0 -0.395111,-0.4064 -0.09031,-0.39511 0.05644,-1.08374 0.135467,-0.63218 0.508001,-1.50142 0.372534,-0.86925 0.92569,-1.89654 0.564445,-1.016 1.275646,-2.15618 0.7112,-1.14018 1.53529,-2.30293 0.82409,-1.17405 1.715913,-2.3368 0.903112,-1.16276 1.828802,-2.22392 0.632178,-1.43369 1.117601,-2.70933 0.496711,-1.27565 0.756356,-2.23521 0.259645,-0.95955 0.237067,-1.51271 -0.01129,-0.56444 -0.383823,-0.56444 -0.327378,0 -0.948267,0.46284 -0.609601,0.46285 -1.377246,1.24178 -0.767645,0.77893 -1.648179,1.78365 -0.869246,0.99342 -1.727202,2.06587 -0.846668,1.06115 -1.625602,2.11102 -0.778934,1.03858 -1.354668,1.90782 -0.575734,0.85796 -0.903112,1.46756 -0.316089,0.59831 -0.259645,0.76765 z m 0.790223,8.13929 q 0.191912,-0.0226 0.575734,-0.508 0.395112,-0.48542 0.92569,-1.30951 0.530578,-0.8128 1.162757,-1.91911 0.643467,-1.10632 1.320801,-2.37067 0.677334,-1.26436 1.365957,-2.63032 0.688623,-1.36595 1.309513,-2.70933 -0.846668,1.04987 -1.659469,2.15618 -0.812801,1.10631 -1.546579,2.20133 -0.72249,1.08374 -1.343379,2.12232 -0.609601,1.04986 -1.072446,1.97555 -0.451556,0.92569 -0.722489,1.69334 -0.270934,0.76764 -0.31609,1.29822 z m 16.459217,-3.20604 q 0,0.0903 0.03387,0.13546 0.02258,0.0903 0.01129,0.0452 -0.01129,-0.0339 -0.04516,-0.18062 z m 6.886239,-4.97841 q -0.06773,0.1016 -0.180622,0.27093 -0.112889,0.15805 -0.225778,0.33867 -0.112889,0.18062 -0.191911,0.36125 -0.07902,0.18062 -0.101601,0.3048 -0.04516,0.25964 0.04516,0.37253 0.1016,0.1016 0.259645,0.1016 0.158044,0 0.349956,-0.0903 0.2032,-0.1016 0.349956,-0.23707 0.214489,-0.19191 0.417689,-0.44027 0.2032,-0.24835 0.361245,-0.46284 0.169333,-0.22578 0.270933,-0.38382 0.112889,-0.16934 0.135467,-0.19191 0.03387,-0.0339 0.07902,-0.0339 0.05645,0 0.1016,0.0677 0.04516,0.0677 -0.01129,0.13547 -0.158045,0.23707 -0.395112,0.56444 -0.225778,0.32738 -0.508,0.63218 -0.270934,0.29351 -0.587023,0.508 -0.316089,0.2032 -0.643468,0.2032 -0.259644,0 -0.451556,-0.15804 -0.180622,-0.15805 -0.214489,-0.49671 -0.112889,0.13546 -0.259644,0.28222 -0.135467,0.14676 -0.304801,0.27093 -0.158044,0.12418 -0.338667,0.2032 -0.180622,0.079 -0.361245,0.079 -0.282222,0 -0.485422,-0.18063 -0.2032,-0.19191 -0.158045,-0.58702 0.04516,-0.42898 0.248356,-0.8128 0.191911,-0.38382 0.474134,-0.67733 0.270933,-0.29352 0.587023,-0.46285 0.327378,-0.16933 0.6096,-0.16933 0.293512,0 0.485423,0.18062 0.04516,0.0339 0.06773,0.079 0.03387,0.0452 0.05644,0.1016 0.04516,-0.0677 0.1016,-0.12418 0.06773,-0.0677 0.158045,-0.0677 0.07902,0 0.146755,0.0452 0.07902,0.0452 0.112889,0.12417 0.04516,0.079 0.04516,0.16934 0.01129,0.0903 -0.04516,0.18062 z m -0.756356,-0.079 q 0.03387,-0.11289 -0.02258,-0.16934 -0.05644,-0.0677 -0.180622,-0.0677 -0.146756,0 -0.282223,0.0903 -0.2032,0.12418 -0.428978,0.33867 -0.225778,0.2032 -0.417689,0.46284 -0.191912,0.24836 -0.327378,0.53058 -0.146756,0.27094 -0.169334,0.51929 -0.01129,0.24836 0.180622,0.24836 0.146756,0 0.372534,-0.13547 0.237067,-0.14675 0.474134,-0.4064 0.237067,-0.25964 0.451556,-0.62089 0.225778,-0.36124 0.349956,-0.79022 z m 9.290762,-8.39894 q -0.372534,0.72249 -1.072446,1.68204 -0.688623,0.94827 -1.591735,2.05458 -0.891823,1.09503 -1.919113,2.30294 -1.02729,1.19662 -2.065869,2.41582 l -0.135466,0.28223 q 0.225778,-0.25965 0.530578,-0.47414 0.316089,-0.22578 0.632178,-0.38382 0.31609,-0.15805 0.598312,-0.22578 0.293512,-0.079 0.496712,-0.0339 0.293511,0.079 0.349956,0.29352 0.05644,0.2032 -0.146756,0.46284 -0.169334,0.21449 -0.440267,0.42898 -0.259645,0.2032 -0.587023,0.4064 -0.316089,0.2032 -0.666045,0.4064 -0.349956,0.2032 -0.677334,0.41769 0.180622,0.36124 0.496711,0.51929 0.327379,0.14675 0.745068,0.14675 0.372534,0 0.790223,-0.1016 0.428978,-0.11289 0.869245,-0.29351 0.440267,-0.18062 0.869246,-0.41769 0.428978,-0.24835 0.8128,-0.49671 0.383823,-0.25964 0.688623,-0.51929 0.31609,-0.25964 0.51929,-0.48542 0.04516,-0.0564 0.1016,-0.0564 0.06773,0 0.1016,0.0339 0.03387,0.0339 0.02258,0.0903 0,0.0564 -0.07902,0.13547 -0.327378,0.3048 -0.869245,0.73378 -0.530578,0.41769 -1.174046,0.8128 -0.643467,0.38382 -1.33209,0.65475 -0.688623,0.27094 -1.320801,0.27094 -0.451556,0 -0.903112,-0.19191 -0.440267,-0.19191 -0.688623,-0.59831 -0.191911,0.14675 -0.349956,0.28222 -0.169333,0.13546 -0.293511,0.29351 -0.1016,0.12418 -0.191912,0.16933 -0.09031,0.0565 -0.158044,0.0565 -0.124178,0 -0.180623,-0.0903 -0.06773,-0.079 -0.03387,-0.16934 0.225778,-0.57573 0.620889,-1.47884 0.383823,-0.90312 0.880534,-1.97556 0.496712,-1.08374 1.083735,-2.24649 0.587023,-1.17405 1.207912,-2.26907 0.62089,-1.09502 1.253068,-2.04329 0.632178,-0.94827 1.23049,-1.58045 0.451556,-0.47413 0.914401,-0.72249 0.474134,-0.25964 0.835379,-0.25964 0.225778,0 0.372533,0.1016 0.146756,0.1016 0.191912,0.32738 0.04516,0.21449 -0.03387,0.54186 -0.06773,0.32738 -0.3048,0.79023 z m -6.254051,7.59743 q 1.049868,-1.21921 1.998135,-2.35938 0.948268,-1.14018 1.715913,-2.12232 0.778934,-0.99342 1.354668,-1.80622 0.575734,-0.82409 0.880534,-1.41111 0.372534,-0.7112 0.349956,-1.016 -0.01129,-0.30481 -0.270933,-0.30481 -0.135467,0 -0.316089,0.079 -0.169334,0.079 -0.372534,0.21449 -0.2032,0.13546 -0.417689,0.33866 -0.203201,0.19191 -0.395112,0.42898 -0.372534,0.45156 -0.778934,1.06116 -0.395112,0.59831 -0.812801,1.28693 -0.4064,0.68863 -0.812801,1.43369 -0.4064,0.74507 -0.790223,1.47885 -0.372534,0.73378 -0.711201,1.4224 -0.338667,0.68862 -0.620889,1.27565 z m -0.462845,1.96426 q 0.293511,-0.12417 0.677334,-0.36124 0.383823,-0.23707 0.711201,-0.48542 0.327378,-0.24836 0.519289,-0.45156 0.191912,-0.2032 0.1016,-0.24835 -0.124178,-0.0677 -0.417689,0.0677 -0.282223,0.12418 -0.609601,0.36124 -0.316089,0.23707 -0.598311,0.54187 -0.282223,0.29351 -0.383823,0.57573 z m 5.475117,0.38383 q -0.04516,0.32738 0.06773,0.58702 0.112889,0.25964 0.485423,0.41769 0.169333,0.0677 0.361245,0.0677 0.3048,0 0.632178,-0.15804 0.338667,-0.15805 0.666045,-0.39511 0.338667,-0.24836 0.643467,-0.54187 0.31609,-0.29351 0.575734,-0.57573 0.259645,-0.29352 0.451556,-0.53058 0.203201,-0.23707 0.293512,-0.36125 0.05644,-0.0677 0.124178,-0.0677 0.06773,0 0.09031,0.0564 0.03387,0.0564 -0.02258,0.14676 -0.158045,0.21449 -0.395111,0.508 -0.237067,0.29351 -0.530579,0.6096 -0.282222,0.31609 -0.6096,0.62089 -0.327379,0.29351 -0.677334,0.53058 -0.338667,0.23707 -0.688623,0.38382 -0.349956,0.14676 -0.688623,0.14676 -0.112889,0 -0.225778,-0.0226 -0.1016,-0.0226 -0.2032,-0.0565 -0.508001,-0.18062 -0.72249,-0.57573 -0.214489,-0.39511 -0.169334,-0.85796 0.04516,-0.46284 0.327378,-0.9144 0.270934,-0.46284 0.733779,-0.75635 0.237067,-0.15805 0.440267,-0.22578 0.214489,-0.0677 0.383823,-0.0677 0.237067,0 0.383822,0.11288 0.158045,0.1016 0.214489,0.29352 0.06773,0.18062 0.01129,0.41769 -0.04516,0.23706 -0.237067,0.49671 -0.158044,0.23706 -0.372533,0.39511 -0.214489,0.14675 -0.451556,0.23707 -0.225778,0.079 -0.462845,0.1016 -0.225778,0.0113 -0.428978,-0.0226 z m 0.09031,-0.29351 q 0.09031,0.0339 0.214489,0.0339 0.1016,0 0.248356,-0.0226 0.146755,-0.0339 0.316089,-0.11288 0.349956,-0.16934 0.519289,-0.37254 0.180623,-0.2032 0.214489,-0.37253 0.03387,-0.16934 -0.04515,-0.28222 -0.07902,-0.11289 -0.237067,-0.11289 -0.180622,0 -0.372534,0.13546 -0.191911,0.12418 -0.361245,0.31609 -0.169333,0.19191 -0.293511,0.4064 -0.135467,0.21449 -0.2032,0.38383 z m 4.61716,-2.39325 q 0.04516,-0.079 0.191912,-0.079 0.07902,0 0.158044,0.0339 0.09031,0.0226 0.146756,0.0677 0.06773,0.0339 0.09031,0.0903 0.03387,0.0452 0,0.0903 -0.1016,0.13547 -0.3048,0.45156 -0.2032,0.31608 -0.395112,0.67733 -0.180622,0.34996 -0.293511,0.66604 -0.1016,0.31609 -0.01129,0.45156 0.03387,0.0339 0.06773,0.0339 0.124178,0 0.349956,-0.2032 0.225778,-0.21449 0.485423,-0.49671 0.270934,-0.28223 0.541867,-0.57574 0.270934,-0.29351 0.474134,-0.47413 0.07902,-0.0677 0.146756,-0.0903 0.06773,-0.0226 0.124178,-0.0226 0.158044,0 0.259644,0.11289 0.1016,0.1016 0.124178,0.15804 0.03387,0.1016 -0.04516,0.31609 -0.06773,0.2032 -0.180623,0.46285 -0.1016,0.24835 -0.214489,0.508 -0.112889,0.24835 -0.158045,0.45155 -0.05644,0.25965 0.01129,0.37254 0.07902,0.1016 0.237067,0.1016 0.225778,0 0.553156,-0.16934 0.338667,-0.18062 0.688623,-0.45155 0.349956,-0.27094 0.654757,-0.59831 0.3048,-0.33867 0.462844,-0.64347 0.02258,-0.0339 0.06773,-0.0339 0.04516,0 0.09031,0.0226 0.04516,0.0113 0.06773,0.0451 0.03387,0.0226 0.01129,0.0565 -0.282222,0.42898 -0.654756,0.82409 -0.361245,0.38382 -0.745067,0.67733 -0.383823,0.28223 -0.756357,0.45156 -0.361244,0.16933 -0.643467,0.16933 -0.282222,0 -0.428978,-0.18062 -0.169334,-0.2032 -0.135467,-0.508 0.03387,-0.3048 0.146756,-0.62089 0.112889,-0.31609 0.237067,-0.57573 0.124178,-0.25965 0.146755,-0.36125 0.04516,-0.18062 -0.09031,-0.0677 -0.135467,0.11289 -0.372534,0.37253 -0.225778,0.24836 -0.508,0.56445 -0.282223,0.3048 -0.541867,0.51929 -0.191912,0.15804 -0.383823,0.25964 -0.191911,0.1016 -0.349956,0.1016 -0.169333,0 -0.259644,-0.14675 -0.09031,-0.14676 -0.03387,-0.50801 0.04516,-0.3048 0.158044,-0.63217 0.101601,-0.32738 0.248356,-0.63218 0.135467,-0.3048 0.282223,-0.56445 0.146755,-0.27093 0.282222,-0.47413 z m 4.673612,1.19662 q -0.135466,0.25965 -0.270933,0.55316 -0.135467,0.28222 -0.293512,0.58702 0.06773,-0.0903 0.135467,-0.18062 0.06773,-0.1016 0.124178,-0.19191 0.214489,-0.29351 0.451556,-0.59831 0.248356,-0.3048 0.496712,-0.55316 0.248355,-0.24836 0.485422,-0.39511 0.248356,-0.15805 0.462845,-0.15805 0.112889,0 0.191912,0.0339 0.2032,0.079 0.237066,0.31609 0.04516,0.23707 -0.03387,0.56444 -0.07902,0.32738 -0.259645,0.71121 -0.169333,0.38382 -0.395111,0.76764 0.519289,-0.13547 1.083734,-0.44027 0.575734,-0.3048 1.185335,-1.016 0.07902,-0.079 0.146755,-0.079 0.05645,0 0.07902,0.0677 0.02258,0.0677 -0.03387,0.14676 -0.349956,0.44027 -0.699912,0.72249 -0.349956,0.28222 -0.699912,0.47413 -0.338667,0.18063 -0.666045,0.28223 -0.316089,0.1016 -0.598312,0.16933 -0.2032,0.3048 -0.428978,0.56444 -0.225778,0.25965 -0.451556,0.45156 -0.214489,0.2032 -0.417689,0.3048 -0.2032,0.1016 -0.372534,0.079 -0.237067,-0.0339 -0.338667,-0.2032 -0.1016,-0.15804 -0.04516,-0.37253 0.05645,-0.21449 0.282223,-0.44027 0.225778,-0.22578 0.643467,-0.37253 0.112889,-0.0452 0.225778,-0.0677 0.112889,-0.0339 0.237067,-0.0677 0.259645,-0.37253 0.485423,-0.77893 0.225778,-0.41769 0.361245,-0.75636 0.135467,-0.33867 0.158044,-0.54187 0.02258,-0.2032 -0.135466,-0.13546 -0.282223,0.11289 -0.666046,0.55315 -0.383822,0.44027 -0.835378,1.1176 -0.451556,0.66605 -0.936979,1.50143 -0.496712,0.83538 -0.982134,1.73849 -0.428978,0.92569 -0.857957,1.85138 -0.428978,0.93698 -0.824089,1.80622 -0.395112,0.88054 -0.733779,1.65947 -0.349956,0.79022 -0.609601,1.41111 -0.259644,0.63218 -0.428978,1.04987 -0.169333,0.42898 -0.2032,0.59831 -0.02258,0.13547 -0.09031,0.19191 -0.06773,0.0564 -0.146756,0.0564 -0.146756,0 -0.270933,-0.16934 -0.124178,-0.16933 -0.07902,-0.41768 0.04516,-0.24836 0.214489,-0.72249 0.169334,-0.47414 0.440267,-1.11761 0.259645,-0.64346 0.62089,-1.43369 0.361245,-0.79022 0.801512,-1.65946 0.428978,-0.86925 0.936979,-1.80623 0.496711,-0.93698 1.038578,-1.87396 0.349956,-0.80151 0.666046,-1.524 0.3048,-0.72249 0.553156,-1.27564 0.237067,-0.55316 0.383822,-0.89183 0.146756,-0.34995 0.169334,-0.38382 0.112889,-0.22578 0.3048,-0.22578 0.146756,0 0.225778,0.14676 0.09031,0.14675 -0.02258,0.37253 z m 0.191912,2.02072 q -0.530579,0.2032 -0.666046,0.36124 -0.124177,0.15805 -0.01129,0.15805 0.07902,0 0.237067,-0.1016 0.169333,-0.0903 0.361244,-0.31609 0.02258,-0.0226 0.03387,-0.0452 0.02258,-0.0339 0.04516,-0.0564 z m -5.407384,8.56827 q -0.1016,0.23707 -0.112889,0.24836 0,0.0339 0.112889,-0.24836 z m 7.529699,-2.59645 q 0,0.079 0.04515,0.0565 0.04516,-0.0113 0.06773,0.0451 0.02258,0.0565 -0.03387,0.1016 -0.05644,0.0452 -0.146756,0.0452 -0.158044,0 -0.2032,-0.16933 -0.09031,-0.34996 0.158045,-1.14018 0.248355,-0.77894 0.745067,-1.87396 0.496712,-1.08373 1.207912,-2.41582 0.711201,-1.32081 1.569157,-2.7545 -0.541867,0.079 -1.038578,0.12418 -0.496712,0.0339 -0.948268,0.0339 -0.474134,0 -0.880534,-0.0452 -0.406401,-0.0452 -0.745068,-0.16933 -0.191911,-0.0677 -0.270933,-0.15805 -0.09031,-0.0903 -0.07902,-0.18062 0,-0.0903 0.07902,-0.14675 0.07902,-0.0677 0.2032,-0.0677 0.124178,0 0.225778,0.0452 0.327378,0.13547 0.767645,0.19191 0.440267,0.0564 0.982134,0.0564 0.440268,0 0.936979,-0.0339 0.496712,-0.0339 1.038579,-0.1016 0.869245,-1.43369 1.828802,-2.87867 0.970845,-1.44498 1.95298,-2.78836 0.993423,-1.34338 1.975557,-2.50614 0.982135,-1.17404 1.873958,-2.032 0.903112,-0.86924 1.682046,-1.36596 0.790223,-0.49671 1.388535,-0.49671 0.180622,0 0.316089,0.0452 0.428978,0.12418 0.575734,0.58702 0.158044,0.46285 0.09031,1.18534 -0.05644,0.72249 -0.3048,1.67075 -0.237067,0.94827 -0.609601,2.04329 -0.361245,1.09503 -0.835379,2.30294 -0.462845,1.20791 -0.959556,2.44969 0.575734,-0.1016 0.993423,-0.14675 0.428978,-0.0452 0.677334,-0.0113 0.2032,0.0226 0.282223,0.0903 0.09031,0.0677 0.05644,0.14675 -0.02258,0.0677 -0.135467,0.12418 -0.112889,0.0565 -0.293511,0.0565 -0.395112,0 -0.835379,0.0451 -0.440267,0.0339 -0.914401,0.0903 -0.620889,1.53529 -1.241779,3.03672 -0.620889,1.50142 -1.117601,2.82222 -0.496711,1.33209 -0.835378,2.41583 -0.327379,1.08373 -0.372534,1.77235 0.03387,0 0.07902,0.0452 0.04516,0.0452 0.07902,0.11289 0.04516,0.079 0.05644,0.16933 0.02258,0.1016 0,0.19191 -0.04516,0.15805 -0.158045,0.23707 -0.112889,0.0903 -0.237067,0.0903 -0.237066,0 -0.395111,-0.22578 -0.146756,-0.2032 -0.09031,-0.73377 0.06773,-0.53058 0.282222,-1.29823 0.225778,-0.76764 0.575734,-1.74978 0.361245,-0.97084 0.790223,-2.07716 0.428978,-1.10631 0.914401,-2.29164 0.485423,-1.19663 0.970846,-2.40454 -0.903113,0.14676 -1.885247,0.37254 -0.982134,0.21448 -1.986846,0.44026 -0.993424,0.22578 -1.986847,0.45156 -0.982134,0.21449 -1.907824,0.37253 -0.846667,1.35467 -1.580446,2.61903 -0.733779,1.27564 -1.264357,2.35938 -0.541867,1.08373 -0.846667,1.90782 -0.31609,0.83538 -0.327378,1.30951 z m 4.289782,-8.636 q 0.959556,-0.14676 1.975557,-0.33867 1.016001,-0.2032 2.009425,-0.41769 1.004712,-0.22578 1.930401,-0.42898 0.936979,-0.21449 1.727202,-0.37253 0.508001,-1.25307 0.982135,-2.46098 0.474133,-1.2192 0.857956,-2.30294 0.383823,-1.09502 0.654756,-2.02071 0.270934,-0.93698 0.361245,-1.60303 0.1016,-0.67733 -0.01129,-1.06115 -0.1016,-0.38383 -0.462845,-0.38383 -0.146755,0 -0.349956,0.0677 -0.541867,0.19191 -1.241779,0.75635 -0.699912,0.55316 -1.512712,1.38854 -0.801512,0.82409 -1.682047,1.88525 -0.869245,1.06115 -1.772357,2.25778 -0.891823,1.19662 -1.772357,2.48355 -0.880534,1.27565 -1.693335,2.5513 z m 9.685876,2.90124 q 0.259645,-0.59831 0.496712,-1.12889 0.225778,-0.54186 0.4064,-0.95955 0.180623,-0.42898 0.304801,-0.7112 0.135466,-0.28223 0.191911,-0.38383 0.09031,-0.13546 0.270934,-0.13546 0.158044,0 0.248355,0.1016 0.09031,0.1016 -0.06773,0.29351 -0.07902,0.0903 -0.180622,0.29351 -0.101601,0.19191 -0.21449,0.44027 0.304801,-0.57574 0.609601,-0.86925 0.3048,-0.29351 0.519289,-0.29351 0.135467,0 0.21449,0.12418 0.09031,0.11289 0.09031,0.37253 0.01129,0.6096 0.225778,0.90311 0.225778,0.28223 0.508,0.28223 0.2032,0 0.395112,-0.13547 0.191911,-0.14676 0.338667,-0.4064 0.03387,-0.0564 0.09031,-0.0564 0.05645,0 0.1016,0.0452 0.04516,0.0451 0.02258,0.1016 -0.146756,0.31609 -0.440267,0.508 -0.282223,0.18062 -0.598312,0.18062 -0.361245,0 -0.654756,-0.28222 -0.282223,-0.28222 -0.316089,-0.92569 -0.02258,-0.15804 -0.09031,-0.15804 -0.04516,0 -0.112889,0.0564 -0.05644,0.0452 -0.146755,0.16933 -0.2032,0.27094 -0.462845,0.69992 -0.259645,0.42897 -0.508001,0.85795 -0.248356,0.42898 -0.440267,0.79022 -0.2032,0.34996 -0.270933,0.47414 -0.112889,0.2032 -0.282223,0.2032 -0.146756,0 -0.237067,-0.13547 -0.09031,-0.12418 -0.01129,-0.31609 z m 9.110145,-9.3585 q -0.293511,0.39512 -0.587023,0.82409 -0.282222,0.41769 -0.575734,0.85796 0.948268,-0.18062 1.907824,-0.32738 0.959557,-0.15804 1.840091,-0.27093 0.891823,-0.11289 1.659469,-0.18062 0.778934,-0.0677 1.365956,-0.0677 0.699912,0 1.049868,0.1016 0.158045,0.0565 0.169334,0.15805 0.01129,0.0903 -0.180623,0.0564 -0.225778,-0.0452 -0.496711,-0.0564 -0.259645,-0.0226 -0.564445,-0.0226 -0.677334,0 -1.512713,0.0903 -0.835379,0.079 -1.74978,0.21449 -0.9144,0.13547 -1.873957,0.31609 -0.948268,0.18062 -1.862669,0.37253 -0.643467,0.99343 -1.241779,2.03201 -0.598311,1.03857 -1.117601,2.032 -0.519289,0.99342 -0.936978,1.91911 -0.406401,0.9144 -0.677334,1.68205 -0.270934,0.76764 -0.372534,1.34338 -0.1016,0.58702 0,0.89182 0.06773,0.21449 0.3048,0.21449 0.327378,0 0.903112,-0.39511 0.575734,-0.38383 1.275646,-1.06116 0.711201,-0.67733 1.478846,-1.60302 0.778934,-0.92569 1.490135,-2.00943 0.04516,-0.0903 0.135466,-0.0903 0.05644,0 0.07902,0.0677 0.03387,0.0564 -0.02258,0.14676 -0.270934,0.4064 -0.677334,0.97084 -0.395112,0.55316 -0.880534,1.15147 -0.474134,0.58703 -0.993423,1.16276 -0.51929,0.57573 -1.038579,1.02729 -0.508001,0.46284 -0.982135,0.74507 -0.474133,0.28222 -0.846667,0.28222 -0.406401,0 -0.654756,-0.38382 -0.237067,-0.37254 -0.169334,-1.02729 0.05644,-0.65476 0.338667,-1.49014 0.270934,-0.82409 0.72249,-1.78364 0.440267,-0.95956 0.970845,-1.9417 0.541867,-0.98213 1.117601,-1.94169 0.587023,-0.95955 1.12889,-1.79493 -0.835378,0.18062 -1.591735,0.36124 -0.745067,0.16934 -1.343379,0.31609 -0.598311,0.13547 -1.004712,0.23707 -0.417689,0.0903 -0.564445,0.12418 -0.293511,0.0677 -0.575734,0.12418 -0.282222,0.0564 -0.496711,0.0564 -0.327379,0 -0.440268,-0.16933 -0.06773,-0.0903 -0.03387,-0.22578 0.02258,-0.14676 0.180622,-0.22578 0.135467,-0.0564 0.225778,-0.0564 0.135467,0 0.225778,0.0564 0.07902,0.0564 0.05645,0.1016 -0.03387,0.079 0.135466,0.079 0.112889,0 0.304801,-0.0339 0.180622,-0.0339 0.4064,-0.079 0.225778,-0.0564 0.462845,-0.11289 0.237067,-0.0564 0.451556,-0.11288 0.790223,-0.2032 1.783646,-0.41769 0.993424,-0.22578 2.088447,-0.44027 0.632178,-0.93698 1.117601,-1.60302 0.485423,-0.66605 0.677334,-0.88054 0.124178,-0.12418 0.214489,-0.12418 0.06773,0 0.1016,0.0677 0.03387,0.0564 0.03387,0.14675 0.01129,0.0903 -0.01129,0.2032 -0.02258,0.1016 -0.06773,0.19191 -0.05644,0.12418 -0.146756,0.19192 -0.09031,0.0677 -0.112889,0.0113 z m 1.083731,5.17032 q 0.06773,-0.14676 0.158045,-0.3048 0.09031,-0.15804 0.180622,-0.28222 0.101601,-0.12418 0.191912,-0.2032 0.1016,-0.079 0.2032,-0.0565 0.135467,0.0113 0.259645,0.14676 0.135467,0.13547 0.07902,0.27093 -0.03387,0.079 -0.124178,0.2032 -0.09031,0.11289 -0.2032,0.23707 -0.112889,0.11289 -0.225778,0.21449 -0.1016,0.0903 -0.191911,0.13547 -0.04516,0.0226 -0.124178,0 -0.06773,-0.0339 -0.135467,-0.0903 -0.05644,-0.0564 -0.07902,-0.12417 -0.02258,-0.079 0.01129,-0.14676 z m -0.485422,1.71591 q -0.316089,0.33867 -0.587023,0.74507 -0.259645,0.4064 -0.4064,0.80151 -0.158045,0.38383 -0.169334,0.7112 -0.01129,0.32738 0.191911,0.51929 0.09031,0.079 0.259645,0.079 0.237067,0 0.575734,-0.15805 0.338667,-0.15804 0.72249,-0.4064 0.395111,-0.25964 0.790223,-0.56444 0.4064,-0.30481 0.767645,-0.59832 0.372534,-0.3048 0.654756,-0.55315 0.293511,-0.25965 0.451556,-0.4064 0.04516,-0.0452 0.09031,-0.0339 0.04516,0.0113 0.06773,0.0452 0.03387,0.0339 0.03387,0.0903 0.01129,0.0452 -0.03387,0.079 -0.1016,0.079 -0.372534,0.33867 -0.259645,0.24835 -0.62089,0.57573 -0.361244,0.32738 -0.801511,0.68862 -0.428979,0.36125 -0.869246,0.65476 -0.428978,0.29351 -0.846667,0.48542 -0.406401,0.2032 -0.72249,0.2032 -0.135467,0 -0.237067,-0.0339 -0.451556,-0.14676 -0.598312,-0.46285 -0.146755,-0.31609 -0.1016,-0.7112 0.04516,-0.4064 0.237067,-0.83538 0.191912,-0.42898 0.41769,-0.79022 0.225778,-0.36125 0.428978,-0.6096 0.2032,-0.24836 0.282222,-0.28222 0.135467,-0.0565 0.2032,-0.0565 0.191912,0 0.248356,0.18062 0.06773,0.16934 -0.05644,0.3048 z m 4.865508,0.39511 q -0.112889,0.0452 -0.146756,-0.0113 -0.02258,-0.0677 0.03387,-0.0903 0.146755,-0.079 0.180622,-0.2032 0.03387,-0.13546 -0.1016,-0.22577 -0.07902,-0.0677 -0.259645,-0.0677 -0.169333,0 -0.361245,0.079 -0.191911,0.0677 -0.349956,0.21448 -0.146755,0.13547 -0.225778,0.33867 -0.07902,0.2032 0,0.46285 0.05644,0.16933 0.112889,0.38382 0.05645,0.2032 0.112889,0.37253 0.406401,-0.14675 0.835379,-0.29351 0.428978,-0.14675 0.82409,-0.31609 0.4064,-0.16933 0.733778,-0.36124 0.338667,-0.2032 0.553156,-0.45156 0.07902,-0.079 0.158045,-0.079 0.05645,0 0.07902,0.0564 0.03387,0.0564 -0.03387,0.14676 -0.169334,0.23707 -0.508001,0.45156 -0.338667,0.21448 -0.767645,0.4064 -0.428978,0.19191 -0.903112,0.36124 -0.474134,0.16933 -0.903112,0.33867 0.01129,0.0226 0.01129,0.0339 0,0.0113 0.01129,0.0339 0.06773,0.4064 -0.01129,0.68862 -0.07902,0.28223 -0.248356,0.46285 -0.158045,0.19191 -0.383823,0.27093 -0.225778,0.0903 -0.440267,0.0903 -0.191911,0 -0.349956,-0.0677 -0.158044,-0.0564 -0.248356,-0.16933 -0.1016,-0.1016 -0.112889,-0.25965 -0.02258,-0.15804 0.09031,-0.36124 0.146755,-0.25965 0.474134,-0.45156 0.316089,-0.2032 0.745067,-0.37253 -0.05645,-0.18062 -0.135467,-0.38383 -0.06773,-0.2032 -0.158044,-0.44026 -0.146756,-0.42898 -0.07902,-0.74507 0.06773,-0.32738 0.259645,-0.54187 0.191911,-0.21449 0.462845,-0.31609 0.282222,-0.11289 0.553156,-0.11289 0.293511,0 0.530578,0.12418 0.237067,0.12418 0.304801,0.38383 0.04515,0.13546 -0.04516,0.32737 -0.07902,0.19191 -0.293511,0.29351 z m -1.332091,1.67076 q -0.395111,0.15805 -0.666045,0.32738 -0.270933,0.15804 -0.338667,0.33867 -0.09031,0.22578 0,0.32738 0.07902,0.11288 0.248356,0.11288 0.124178,0 0.270934,-0.0677 0.135466,-0.0564 0.248355,-0.18062 0.124178,-0.11289 0.203201,-0.28222 0.07902,-0.16934 0.05644,-0.39512 0,-0.0677 -0.02258,-0.18062 z m 8.026412,-8.9521 q -0.293511,0.39512 -0.587023,0.82409 -0.282222,0.41769 -0.575733,0.85796 0.948267,-0.18062 1.907824,-0.32738 0.959556,-0.15804 1.84009,-0.27093 0.891824,-0.11289 1.659469,-0.18062 0.778934,-0.0677 1.365957,-0.0677 0.699912,0 1.049867,0.1016 0.158045,0.0565 0.169334,0.15805 0.01129,0.0903 -0.180622,0.0564 -0.225778,-0.0452 -0.496712,-0.0564 -0.259645,-0.0226 -0.564445,-0.0226 -0.677334,0 -1.512713,0.0903 -0.835378,0.079 -1.749779,0.21449 -0.914401,0.13547 -1.873958,0.31609 -0.948267,0.18062 -1.862668,0.37253 -0.643468,0.99343 -1.241779,2.03201 -0.598312,1.03857 -1.117601,2.032 -0.51929,0.99342 -0.936979,1.91911 -0.406401,0.9144 -0.677334,1.68205 -0.270934,0.76764 -0.372534,1.34338 -0.1016,0.58702 0,0.89182 0.06773,0.21449 0.3048,0.21449 0.327378,0 0.903112,-0.39511 0.575734,-0.38383 1.275646,-1.06116 0.711201,-0.67733 1.478846,-1.60302 0.778934,-0.92569 1.490135,-2.00943 0.04516,-0.0903 0.135467,-0.0903 0.05644,0 0.07902,0.0677 0.03387,0.0564 -0.02258,0.14676 -0.270933,0.4064 -0.677334,0.97084 -0.395111,0.55316 -0.880534,1.15147 -0.474134,0.58703 -0.993423,1.16276 -0.51929,0.57573 -1.038579,1.02729 -0.508001,0.46284 -0.982134,0.74507 -0.474134,0.28222 -0.846668,0.28222 -0.4064,0 -0.654756,-0.38382 -0.237067,-0.37254 -0.169334,-1.02729 0.05645,-0.65476 0.338667,-1.49014 0.270934,-0.82409 0.72249,-1.78364 0.440267,-0.95956 0.970845,-1.9417 0.541868,-0.98213 1.117602,-1.94169 0.587022,-0.95955 1.12889,-1.79493 -0.835379,0.18062 -1.591735,0.36124 -0.745068,0.16934 -1.343379,0.31609 -0.598312,0.13547 -1.004713,0.23707 -0.417689,0.0903 -0.564445,0.12418 -0.293511,0.0677 -0.575734,0.12418 -0.282222,0.0564 -0.496711,0.0564 -0.327378,0 -0.440267,-0.16933 -0.06773,-0.0903 -0.03387,-0.22578 0.02258,-0.14676 0.180622,-0.22578 0.135467,-0.0564 0.225778,-0.0564 0.135467,0 0.225778,0.0564 0.07902,0.0564 0.05644,0.1016 -0.03387,0.079 0.135467,0.079 0.112889,0 0.3048,-0.0339 0.180622,-0.0339 0.4064,-0.079 0.225778,-0.0564 0.462845,-0.11289 0.237067,-0.0564 0.451556,-0.11288 0.790223,-0.2032 1.783647,-0.41769 0.993423,-0.22578 2.088446,-0.44027 0.632179,-0.93698 1.117601,-1.60302 0.485423,-0.66605 0.677334,-0.88054 0.124178,-0.12418 0.214489,-0.12418 0.06773,0 0.101601,0.0677 0.03387,0.0564 0.03387,0.14675 0.01129,0.0903 -0.01129,0.2032 -0.02258,0.1016 -0.06773,0.19191 -0.05644,0.12418 -0.146756,0.19192 -0.09031,0.0677 -0.112889,0.0113 z"
       id="text3"
       transform="rotate(-16.913795)"
       aria-label="MakeupArtist" />
  </g>
</svg>
