<?xml version="1.0" encoding="UTF-8" standalone="no"?>
<!-- Created with Inkscape (http://www.inkscape.org/) -->

<svg
   width="275.60797mm"
   height="24.309902mm"
   viewBox="0 0 275.60797 24.309902"
   version="1.1"
   id="svg1"
   xmlns="http://www.w3.org/2000/svg"
   xmlns:svg="http://www.w3.org/2000/svg">
  <defs
     id="defs1" />
  <g
     id="layer1"
     transform="translate(-170.08748,-192.21914)">
    <path
       style="font-weight:900;font-size:30.2914px;font-family:Arial;-inkscape-font-specification:'Arial Heavy';fill-opacity:0;stroke:#ffffff;stroke-width:0.2;stroke-linecap:square;stroke-linejoin:round;stroke-miterlimit:30"
       d="m 182.87232,193.85815 6.3748,-0.39935 q 0.20707,1.55302 0.84307,2.36651 1.03535,1.31638 2.95814,1.31638 1.4347,0 2.20382,-0.66559 0.78391,-0.68037 0.78391,-1.56781 0,-0.84307 -0.73954,-1.50866 -0.73953,-0.66558 -3.43144,-1.25721 -4.40764,-0.99098 -6.28606,-2.63275 -1.89321,-1.64177 -1.89321,-4.18577 0,-1.67135 0.96139,-3.15043 0.97619,-1.49386 2.91377,-2.33693 1.95238,-0.85786 5.33946,-0.85786 4.15619,0 6.33043,1.55302 2.18902,1.53824 2.60316,4.91052 l -6.31564,0.36977 q -0.25144,-1.46428 -1.06493,-2.12986 -0.7987,-0.66558 -2.21861,-0.66558 -1.16846,0 -1.76009,0.50288 -0.59163,0.48809 -0.59163,1.19805 0,0.51767 0.48809,0.93181 0.47331,0.42894 2.24819,0.7987 4.39285,0.94661 6.28606,1.9228 1.908,0.96139 2.76586,2.39609 0.87266,1.43471 0.87266,3.20959 0,2.08549 -1.15368,3.84559 -1.15368,1.7601 -3.22438,2.67712 -2.0707,0.90223 -5.22112,0.90223 -5.53173,0 -7.6616,-2.12986 -2.12986,-2.12986 -2.41088,-5.4134 z m 23.07352,-14.5097 h 6.7002 v 7.58764 h 7.32141 v -7.58764 h 6.72978 v 21.6832 h -6.72978 v -8.7709 h -7.32141 v 8.7709 h -6.7002 z m 38.54463,18.10384 h -7.63202 l -1.05014,3.57936 h -6.8481 l 8.14969,-21.6832 h 7.30661 l 8.14969,21.6832 h -7.0108 z m -1.40512,-4.68866 -2.3961,-7.79471 -2.38131,7.79471 z m 11.62551,-13.41518 h 6.70019 v 16.34375 h 10.45705 v 5.33945 h -17.15724 z m 20.47036,0 h 6.71499 v 21.6832 h -6.71499 z m 11.56634,0 h 6.25648 l 8.16448,11.99527 v -11.99527 h 6.31564 v 21.6832 h -6.31564 l -8.12011,-11.90654 v 11.90654 h -6.30085 z m 25.45484,0 h 6.71499 v 21.6832 h -6.71499 z m 19.47937,0 h 7.0108 l 4.88094,15.60421 4.80699,-15.60421 h 6.80373 l -8.04615,21.6832 h -7.26225 z m 37.31701,18.10384 h -7.63202 l -1.05014,3.57936 h -6.8481 l 8.14968,-21.6832 h 7.30662 l 8.14969,21.6832 h -7.0108 z m -1.40512,-4.68866 -2.3961,-7.79471 -2.38131,7.79471 z m 10.45703,1.09452 6.3748,-0.39935 q 0.20707,1.55302 0.84307,2.36651 1.03535,1.31638 2.95815,1.31638 1.4347,0 2.20382,-0.66559 0.7839,-0.68037 0.7839,-1.56781 0,-0.84307 -0.73953,-1.50866 -0.73954,-0.66558 -3.43145,-1.25721 -4.40764,-0.99098 -6.28606,-2.63275 -1.89321,-1.64177 -1.89321,-4.18577 0,-1.67135 0.9614,-3.15043 0.97619,-1.49386 2.91377,-2.33693 1.95238,-0.85786 5.33945,-0.85786 4.15619,0 6.33043,1.55302 2.18903,1.53824 2.60317,4.91052 l -6.31564,0.36977 q -0.25144,-1.46428 -1.06493,-2.12986 -0.7987,-0.66558 -2.21861,-0.66558 -1.16847,0 -1.7601,0.50288 -0.59163,0.48809 -0.59163,1.19805 0,0.51767 0.4881,0.93181 0.4733,0.42894 2.24819,0.7987 4.39284,0.94661 6.28605,1.9228 1.90801,0.96139 2.76587,2.39609 0.87265,1.43471 0.87265,3.20959 0,2.08549 -1.15367,3.84559 -1.15368,1.7601 -3.22438,2.67712 -2.0707,0.90223 -5.22113,0.90223 -5.53173,0 -7.66159,-2.12986 -2.12987,-2.12986 -2.41089,-5.4134 z m 23.31019,-14.5097 h 6.71499 v 21.6832 h -6.71499 z m 10.35351,14.5097 6.3748,-0.39935 q 0.20707,1.55302 0.84307,2.36651 1.03535,1.31638 2.95814,1.31638 1.4347,0 2.20382,-0.66559 0.78391,-0.68037 0.78391,-1.56781 0,-0.84307 -0.73954,-1.50866 -0.73953,-0.66558 -3.43144,-1.25721 -4.40764,-0.99098 -6.28606,-2.63275 -1.89321,-1.64177 -1.89321,-4.18577 0,-1.67135 0.96139,-3.15043 0.97619,-1.49386 2.91378,-2.33693 1.95237,-0.85786 5.33945,-0.85786 4.15619,0 6.33043,1.55302 2.18902,1.53824 2.60316,4.91052 l -6.31563,0.36977 q -0.25145,-1.46428 -1.06494,-2.12986 -0.7987,-0.66558 -2.21861,-0.66558 -1.16846,0 -1.76009,0.50288 -0.59163,0.48809 -0.59163,1.19805 0,0.51767 0.48809,0.93181 0.47331,0.42894 2.24819,0.7987 4.39285,0.94661 6.28606,1.9228 1.908,0.96139 2.76587,2.39609 0.87265,1.43471 0.87265,3.20959 0,2.08549 -1.15368,3.84559 -1.15367,1.7601 -3.22438,2.67712 -2.0707,0.90223 -5.22112,0.90223 -5.53173,0 -7.6616,-2.12986 -2.12986,-2.12986 -2.41088,-5.4134 z m 23.07352,-14.5097 h 6.7002 v 7.58764 h 7.3214 v -7.58764 h 6.72978 v 21.6832 h -6.72978 v -8.7709 h -7.3214 v 8.7709 h -6.7002 z m 23.67996,0 h 20.36682 v 5.35424 h -6.83331 v 16.32896 h -6.7002 v -16.32896 h -6.83331 z"
       id="text2-9"
       transform="scale(0.93059761,1.0745783)"
       aria-label="SHALINI VASISHT" />
  </g>
</svg>
